# xmcd CD database file
#
# Track frame offsets:
#	150
#	5297
#	20355
#	41232
#	55787
#	67818
#	84537
#	97577
#	116179
#	133060
#	147033
#	160100
#	175519
#	190065
#	206309
#	219128
#
# Disc length: 3003 seconds
#
# Revision: 0
# Processed by: cddbd v1.5.1PL0 Copyright (c) Steve Scherf et al.
# Submitted via: CDex 1.50
#
DISCID=c30bb910
DTITLE=Candieiro - Ao Vivo Vol. 2
DYEAR=1900
DGENRE=Blues
TTITLE0=ABERTURA
TTITLE1=EU SOU DA VANEIRA
TTITLE2=BARQUINHO
TTITLE3=OLHA O BASTANTÃO
TTITLE4=TÁ QUE TÁ
TTITLE5=REI CORAÇÃO
TTITLE6=LAMBENDO ESPULETA
TTITLE7=MANDRAKE
TTITLE8=DEIXA EU TE AMAR
TTITLE9=O QUÊ QUE EU TÔ FAZENDO AQUI
TTITLE10=FIM DE SEMANA TEM RODEIO
TTITLE11=COISAS DO AMOR
TTITLE12=SAUDADE MORENA
TTITLE13=ELA É BONITA
TTITLE14=COMO MEXE
TTITLE15=FUI! (instrumental)
EXTD=
EXTT0=
EXTT1=
EXTT2=
EXTT3=
EXTT4=
EXTT5=
EXTT6=
EXTT7=
EXTT8=
EXTT9=
EXTT10=
EXTT11=
EXTT12=
EXTT13=
EXTT14=
EXTT15=
PLAYORDER=
